<svg xmlns="http://www.w3.org/2000/svg" version="1.1" xmlns:xlink="http://www.w3.org/1999/xlink" xmlns:svgjs="http://svgjs.dev/svgjs" width="100%" height="100%" viewBox="0 0 1000 600"><rect width="1000" height="600" x="0" y="0" fill="#605f5e"/><g><rect width="333.3333333333333" height="333.3333333333333" rx="13.333333333333334" ry="13.333333333333334" y="107.16659283354366" fill="white" transform="matrix(1.471551383764865,0,0,1.471551383764865,0,-102.95971285587794)" x="84.94436645507812"/><path d="M306.00821202360794 348.833251798172L306.00821202360794 348.833251798172Q299.3981393012996 348.833251798172 293.33175221415945 345.1132974522842Q287.2367500935893 341.4219581398263 283.5454107811314 333.38113374602256Q279.8254564352436 325.3403093522189 279.8254564352436 312.77830967649004L279.8254564352436 312.77830967649004Q279.8254564352436 302.4768976417238 282.31496434364544 289.6001325982659Q284.7758572186174 276.72336755480796 288.7819618988043 263.73214237763057Q292.8166816124211 250.76953223388293 297.5381621283556 240.2678149651073L297.5381621283556 240.2678149651073Q283.3451055471221 249.73939103040632 272.6144680109072 266.4219555200417Q261.91244550812223 283.1045200096771 254.0719263483279 305.1667107841349L254.0719263483279 305.1667107841349Q255.73159828726244 311.7481684730134 256.76173949073905 317.5284052258545Q257.7918806942157 323.2800269452656 257.7918806942157 328.03012249463006L257.7918806942157 328.03012249463006Q257.7918806942157 337.10108809191036 253.47101064629987 342.25179410929354Q249.12152556495408 347.4025001266767 238.4195030621691 347.4025001266767L238.4195030621691 347.4025001266767Q228.94792699687008 347.4025001266767 224.51259681523462 343.1674751790506Q220.07726663359915 338.93245023142447 220.07726663359915 331.32085133906935L220.07726663359915 331.32085133906935Q220.07726663359915 326.3704505556956 221.82278367282342 319.98929810082643Q223.59691574547762 313.6081456459573 226.88764458991685 306.1968519876116L226.88764458991685 306.1968519876116Q223.16769024402902 295.2659092173873 217.81667899263653 281.5593082044621Q212.46566774124403 267.8527071915371 202.76517140850578 251.59936820335022L202.76517140850578 251.59936820335022Q199.90366806551515 263.73214237763057 196.89908955537499 275.807686485051Q193.92312607866472 287.8546155590416 191.9486887720012 298.04156746008823Q190.00286649876756 308.2571343945648 190.00286649876756 315.239202551462L190.00286649876756 315.239202551462Q190.00286649876756 326.5707557897049 196.18371371962732 326.5707557897049L196.18371371962732 326.5707557897049L196.58432418764602 326.9999812911535Q196.58432418764602 333.7817442140413 193.20775024291706 338.64629989712535Q189.8025612647582 343.4822405467795 184.53739511365544 346.05759355547104Q179.30084399598258 348.6329465641627 173.52060724314148 348.6329465641627L173.52060724314148 348.6329465641627Q167.96929075773966 348.6329465641627 162.7041246066369 345.94313342175144Q157.43895845553413 343.2819353127702 154.1482296110949 337.6161586936487Q150.85750076665568 331.9503820745273 150.85750076665568 323.0797217112563L150.85750076665568 323.0797217112563Q150.85750076665568 314.63828684943394 153.83346424336594 304.6516401823966Q156.8380427535061 294.63637848192934 161.3592180354313 284.2491213468734Q165.9090083507864 273.8332491783875 170.63048886672095 263.84660251135017Q175.3805844160854 253.85995584431285 179.18638386226294 245.10375561476147Q182.9921833084405 236.34755538521014 184.22262974592647 229.73748266290178L184.22262974592647 229.73748266290178Q180.10206493201997 226.87597931991115 175.3805844160854 226.87597931991115L175.3805844160854 226.87597931991115Q171.46032483618825 226.87597931991115 167.45422015600133 229.45133232860272Q163.41950044238456 232.0266853372943 159.92846636393597 237.97861229071478L159.92846636393597 237.97861229071478L158.46909965901074 237.37769658868675Q158.69801992645 226.87597931991115 163.01888997436586 218.1197790903598Q167.33976002228172 209.36357886080845 174.4362883128985 204.09841270970568Q181.56143163694517 198.83324655860292 190.00286649876756 198.83324655860292L190.00286649876756 198.83324655860292Q199.67474779807588 198.83324655860292 209.9761598328422 207.3032964538552Q220.27757186760846 215.74473131567757 229.03377209715984 235.11710894772418Q237.78997232671117 254.46087154634088 243.16959861153356 287.42539005759295L243.16959861153356 287.42539005759295Q250.98150273789798 262.1010854721259 260.05246833517833 244.98929548104186Q269.1234339324586 227.90612052338778 278.70947013147725 217.80501372263083Q288.26689129706597 207.70390692187388 297.6526222620753 203.26857674023842Q307.03835322708454 198.83324655860292 315.47978808890696 198.83324655860292L315.47978808890696 198.83324655860292Q325.9815053576825 198.83324655860292 334.3370951192152 203.98395257598608Q342.66406984731793 209.1346585933692 347.5000104969721 216.97517775316354Q352.3645661800562 224.8156969129579 352.3645661800562 232.62760103932234L352.3645661800562 232.62760103932234Q347.2138601626731 231.196849367827 342.14899924557966 230.56731863236908Q337.11275336191613 229.96640293034105 332.3626578125517 229.96640293034105L332.3626578125517 229.96640293034105Q327.6411772966171 229.96640293034105 323.2916922152714 230.56731863236908L323.2916922152714 230.56731863236908Q321.4603300757574 240.03889469766804 319.40004766880406 251.68521330363993Q317.33976526185086 263.33153190961184 315.79455345663587 275.0636956158735Q314.24934165142093 286.8244743555649 314.24934165142093 296.69666088888266L314.24934165142093 296.69666088888266Q314.24934165142093 306.7977676896396 316.3096240583742 313.17892014450865Q318.36990646532746 319.5886876328077 323.5206124827106 319.5886876328077L323.5206124827106 319.5886876328077Q326.8113413271499 319.5886876328077 330.2165303053087 316.69856925638715Q333.59310425003764 313.8084508799667 335.25277618897223 307.82790889311616L335.25277618897223 307.82790889311616L336.6835278604675 308.4574396285742Q336.6835278604675 322.04958050777964 332.1623525785423 331.0060859713403Q327.6411772966171 339.962591434901 320.5160339725704 344.39792161653656Q313.41950568195364 348.833251798172 306.00821202360794 348.833251798172Z " fill="#605f5e" transform="matrix(1.471551383764865,0,0,1.471551383764865,0,-102.95971285587794)"/><path d="M531.5823281966361 348.83323524429625L531.5823281966361 348.83323524429625Q523.8323684209774 348.83323524429625 516.9435152870587 345.3888086773368Q510.05466215314004 341.94438211037743 505.8208878312525 335.9166356181986Q501.6110331383021 329.88888912601965 501.6110331383021 322.3063667529216L501.6110331383021 322.3063667529216L503.6681212269029 321.2778227086212Q511.7768754366197 327.30556920080016 519.8617100173993 327.30556920080016L519.8617100173993 327.30556920080016Q524.5260376601568 327.30556920080016 528.6402138373583 324.72224927558057Q532.778309643497 322.1389293503611 535.959620292147 315.58495102156337Q539.1648505697342 309.05489232170294 540.9588227400254 297.50171154502675Q542.776714539254 285.97245039728773 542.776714539254 267.889210920751L542.776714539254 267.889210920751Q542.776714539254 252.5567287719944 544.7620437410432 242.39088647367677Q546.723453313895 232.22504417535922 552.9425568375716 223.80533478945853L552.9425568375716 223.80533478945853Q550.6941117174731 222.25055890853938 547.6802384713837 220.9588989459296Q544.6663652252943 219.66723898331983 541.3893760608954 219.66723898331983L541.3893760608954 219.66723898331983Q535.8878614053353 219.66723898331983 532.347756322627 223.70965627370967Q528.831570868856 227.75207356409948 528.831570868856 233.9472574588389L528.831570868856 233.9472574588389Q528.831570868856 237.22424662323775 529.9318737999681 240.83611059275765Q531.0560963600174 244.47189419121477 533.4719788826762 248.08375816073462L533.4719788826762 248.08375816073462Q523.1386991817982 248.08375816073462 516.3455245636283 244.3762156754659Q509.5284303165212 240.6686731901971 506.17968226531076 234.99972113207647Q502.807014585163 229.30684944501863 502.807014585163 223.1116655502792L502.807014585163 223.1116655502792Q502.807014585163 216.9164816555398 505.8208878312525 211.39104737104245Q508.8347610773419 205.88953271548237 514.8625075695209 202.34942763277414Q520.8902540616997 198.8332421790031 529.5013204790981 198.8332421790031L529.5013204790981 198.8332421790031Q536.2227362104563 198.8332421790031 544.4989278227338 201.48832099103427Q552.7511998060738 204.16731943200267 562.5821672992704 210.3625033267421L562.5821672992704 210.3625033267421Q568.6099137914493 203.30621279026283 573.4177592078302 201.58399950678316Q578.2495242531481 199.86178622330345 581.0002815809282 199.86178622330345L581.0002815809282 199.86178622330345Q588.0565721174074 199.86178622330345 591.3335612818063 204.5978727528726Q594.6105504462051 209.33395928244173 594.6105504462051 215.86401798230222L594.6105504462051 215.86401798230222Q594.6105504462051 220.1695511910014 592.9840156784743 224.3076469971401Q591.3335612818063 228.4457428032788 587.8891347148469 231.1247412442472Q584.4447081478875 233.77982005627834 578.9431934923274 233.77982005627834L578.9431934923274 233.77982005627834Q577.2209802088478 233.77982005627834 575.2356510070587 233.44494525115735Q573.2503218052696 233.08615081709902 570.8344392826106 232.22504417535922L570.8344392826106 232.22504417535922Q569.6384578357497 235.33459593719752 569.1122259991309 239.47269174333624Q568.6099137914493 243.6107875494749 568.6099137914493 248.41863296585566L568.6099137914493 248.41863296585566Q568.6099137914493 257.89080602499394 569.6384578357497 268.654639046742Q570.6670018800501 279.41847206849 570.6670018800501 289.75175176936807L570.6670018800501 289.75175176936807Q570.6670018800501 305.9453405598646 567.2225753130907 317.2354054182314Q563.7781487461314 328.501550647661 558.1091966880107 335.4860822973286Q552.4163250009528 342.44669431805903 545.5274718670341 345.6519245956463Q538.6386187331154 348.83323524429625 531.5823281966361 348.83323524429625Z " fill="white" transform="matrix(1.471551383764865,0,0,1.471551383764865,0,-102.95971285587794)"/></g></svg>